<svg width="250" height="250" viewBox="0 0 250 250" fill="none" xmlns="http://www.w3.org/2000/svg">
<rect width="250" height="250" fill="white"/>
<path d="M33.7263 127.856C29.2742 121.052 33.8695 112.288 41.9978 112.08L114.351 110.231C122.479 110.023 128.044 118.528 124.368 125.54L91.6443 187.952C87.9681 194.963 77.8078 195.223 73.3557 188.419L33.7263 127.856Z" fill="url(#paint0_angular)"/>
<path d="M86.7797 68.1179C78.2685 63.2604 67.6907 69.4381 67.7396 79.2377L68.2558 182.719C68.3047 192.519 78.9436 198.591 87.4059 193.649L176.766 141.461C185.228 136.519 185.167 124.269 176.656 119.412L86.7797 68.1179Z" fill="url(#paint1_angular)" stroke="white" stroke-width="0.5"/>
<path d="M148.943 58.6558C143.702 49.5771 130.598 49.5771 125.356 58.6558L55.8937 178.968C50.6522 188.047 57.2041 199.395 67.6873 199.395H206.612C217.095 199.395 223.647 188.047 218.405 178.968L148.943 58.6558Z" fill="url(#paint2_angular)" stroke="white" stroke-width="0.5"/>
<defs>
<radialGradient id="paint0_angular" cx="0" cy="0" r="1" gradientUnits="userSpaceOnUse" gradientTransform="translate(79.9075 142.013) rotate(27.6687) scale(63.454 61.2545)">
<stop offset="0.435554" stop-color="#AAA4FF"/>
<stop offset="0.574582" stop-color="#9991FF"/>
</radialGradient>
<radialGradient id="paint1_angular" cx="0" cy="0" r="1" gradientUnits="userSpaceOnUse" gradientTransform="translate(75.8352 143.816) rotate(-46.8302) scale(65.1317)">
<stop offset="0.872025" stop-color="#9992FF"/>
<stop offset="0.977096" stop-color="#7F76FF"/>
</radialGradient>
<radialGradient id="paint2_angular" cx="0" cy="0" r="1" gradientUnits="userSpaceOnUse" gradientTransform="translate(47.1185 192.523) rotate(31.6394) scale(201.764)">
<stop offset="0.740926" stop-color="#7F76FF"/>
<stop offset="0.783397" stop-color="#6C62FF"/>
<stop offset="0.84375" stop-color="#584CFF"/>
</radialGradient>
</defs>
</svg>
